<svg width="19" height="20" viewBox="0 0 19 20" fill="none" xmlns="http://www.w3.org/2000/svg">
<path fill-rule="evenodd" clip-rule="evenodd" d="M9.66667 0.833252C4.60417 0.833252 0.5 4.93742 0.5 9.99992C0.5 15.0624 4.60417 19.1666 9.66667 19.1666C14.7292 19.1666 18.8333 15.0624 18.8333 9.99992C18.8333 4.93742 14.7292 0.833252 9.66667 0.833252ZM13.64 8.44992C13.7132 8.36629 13.7689 8.26887 13.8038 8.16339C13.8388 8.05792 13.8523 7.94651 13.8436 7.83574C13.8348 7.72496 13.804 7.61705 13.753 7.51836C13.7019 7.41966 13.6317 7.33217 13.5463 7.26104C13.4609 7.1899 13.3622 7.13655 13.2559 7.10414C13.1496 7.07172 13.0379 7.06089 12.9274 7.07227C12.8169 7.08366 12.7097 7.11704 12.6123 7.17045C12.5148 7.22385 12.4291 7.29621 12.36 7.38325L8.77667 11.6824L6.9225 9.82742C6.76533 9.67562 6.55483 9.59162 6.33633 9.59352C6.11783 9.59542 5.90882 9.68306 5.75432 9.83757C5.59981 9.99208 5.51217 10.2011 5.51027 10.4196C5.50837 10.6381 5.59237 10.8486 5.74417 11.0058L8.24417 13.5058C8.32605 13.5876 8.42408 13.6515 8.53201 13.6933C8.63995 13.7351 8.75541 13.754 8.87106 13.7488C8.9867 13.7435 9.09998 13.7142 9.20368 13.6628C9.30737 13.6113 9.39921 13.5388 9.47333 13.4499L13.64 8.44992Z" fill="#131316"/>
</svg>
